<mxfile host="app.diagrams.net" agent="Mozilla/5.0 (Windows NT 10.0; Win64; x64; rv:138.0) Gecko/20100101 Firefox/138.0" version="27.0.3">
  <diagram name="Page-1" id="VmkMqPZusAJ_iYhfGcvL">
    <mxGraphModel dx="860" dy="520" grid="1" gridSize="10" guides="1" tooltips="1" connect="1" arrows="1" fold="1" page="1" pageScale="1" pageWidth="850" pageHeight="1100" math="1" shadow="0">
      <root>
        <mxCell id="0" />
        <mxCell id="1" parent="0" />
        <mxCell id="ishwmYzlXYuHLydgc3fG-31" value="" style="whiteSpace=wrap;html=1;fillColor=none;dashed=1;dashPattern=12 12;rounded=0;glass=0;shadow=0;connectable=1;perimeterSpacing=0;" vertex="1" parent="1">
          <mxGeometry x="252.5" y="490" width="400" height="480" as="geometry" />
        </mxCell>
        <mxCell id="ishwmYzlXYuHLydgc3fG-32" value="" style="rounded=0;whiteSpace=wrap;html=1;rotation=90;strokeColor=#FFFFFF;" vertex="1" parent="1">
          <mxGeometry x="227.5" y="625" width="47.5" height="22.5" as="geometry" />
        </mxCell>
        <mxCell id="ishwmYzlXYuHLydgc3fG-7" style="edgeStyle=orthogonalEdgeStyle;rounded=0;orthogonalLoop=1;jettySize=auto;html=1;exitX=0.5;exitY=1;exitDx=0;exitDy=0;entryX=0.5;entryY=0;entryDx=0;entryDy=0;" edge="1" parent="1" source="ishwmYzlXYuHLydgc3fG-1" target="ishwmYzlXYuHLydgc3fG-3">
          <mxGeometry relative="1" as="geometry" />
        </mxCell>
        <mxCell id="ishwmYzlXYuHLydgc3fG-1" value="" style="ellipse;whiteSpace=wrap;html=1;aspect=fixed;fillColor=none;fontFamily=Modern;fontSource=https%3A%2F%2Fsourceforge.net%2Fprojects%2Fcm-unicode%2F;" vertex="1" parent="1">
          <mxGeometry x="230" y="220" width="120" height="120" as="geometry" />
        </mxCell>
        <mxCell id="ishwmYzlXYuHLydgc3fG-2" value="&lt;div&gt;Input:&lt;/div&gt;&lt;div&gt;desired angle, I_chirp, Q_chirp, Output[i][j]&lt;/div&gt;" style="ellipse;whiteSpace=wrap;html=1;aspect=fixed;fillColor=none;fontFamily=Modern;fontSource=https%3A%2F%2Fsourceforge.net%2Fprojects%2Fcm-unicode%2F;" vertex="1" parent="1">
          <mxGeometry x="240" y="230" width="100" height="100" as="geometry" />
        </mxCell>
        <mxCell id="ishwmYzlXYuHLydgc3fG-8" style="edgeStyle=orthogonalEdgeStyle;rounded=0;orthogonalLoop=1;jettySize=auto;html=1;exitX=1;exitY=0.5;exitDx=0;exitDy=0;entryX=0;entryY=0.5;entryDx=0;entryDy=0;" edge="1" parent="1" source="ishwmYzlXYuHLydgc3fG-3" target="ishwmYzlXYuHLydgc3fG-4">
          <mxGeometry relative="1" as="geometry" />
        </mxCell>
        <mxCell id="ishwmYzlXYuHLydgc3fG-20" style="edgeStyle=orthogonalEdgeStyle;rounded=0;orthogonalLoop=1;jettySize=auto;html=1;exitX=0;exitY=0.5;exitDx=0;exitDy=0;entryX=0.5;entryY=0;entryDx=0;entryDy=0;" edge="1" parent="1" source="ishwmYzlXYuHLydgc3fG-3" target="ishwmYzlXYuHLydgc3fG-19">
          <mxGeometry relative="1" as="geometry" />
        </mxCell>
        <mxCell id="ishwmYzlXYuHLydgc3fG-3" value="$$\textrm{Output size} \geq N$$" style="rounded=0;whiteSpace=wrap;html=1;fillColor=none;" vertex="1" parent="1">
          <mxGeometry x="215" y="400" width="150" height="60" as="geometry" />
        </mxCell>
        <mxCell id="ishwmYzlXYuHLydgc3fG-37" value="" style="edgeStyle=orthogonalEdgeStyle;rounded=0;orthogonalLoop=1;jettySize=auto;html=1;" edge="1" parent="1" source="ishwmYzlXYuHLydgc3fG-4" target="ishwmYzlXYuHLydgc3fG-18">
          <mxGeometry relative="1" as="geometry" />
        </mxCell>
        <mxCell id="ishwmYzlXYuHLydgc3fG-4" value="&lt;div&gt;Convert desired&amp;nbsp;&lt;/div&gt;&lt;div&gt;angle to radians&lt;/div&gt;" style="rounded=0;whiteSpace=wrap;html=1;fillColor=none;" vertex="1" parent="1">
          <mxGeometry x="425" y="400" width="185" height="60" as="geometry" />
        </mxCell>
        <mxCell id="ishwmYzlXYuHLydgc3fG-21" style="edgeStyle=orthogonalEdgeStyle;rounded=0;orthogonalLoop=1;jettySize=auto;html=1;exitX=0;exitY=0.5;exitDx=0;exitDy=0;entryX=1;entryY=0.5;entryDx=0;entryDy=0;" edge="1" parent="1" source="ishwmYzlXYuHLydgc3fG-5" target="ishwmYzlXYuHLydgc3fG-19">
          <mxGeometry relative="1" as="geometry" />
        </mxCell>
        <mxCell id="ishwmYzlXYuHLydgc3fG-35" value="" style="edgeStyle=orthogonalEdgeStyle;rounded=0;orthogonalLoop=1;jettySize=auto;html=1;" edge="1" parent="1" source="ishwmYzlXYuHLydgc3fG-5" target="ishwmYzlXYuHLydgc3fG-11">
          <mxGeometry relative="1" as="geometry" />
        </mxCell>
        <mxCell id="ishwmYzlXYuHLydgc3fG-5" value="&lt;div&gt;Compare sizes of:&lt;/div&gt;&lt;div&gt;I, Q, and Output[N]&lt;/div&gt;" style="rounded=0;whiteSpace=wrap;html=1;fillColor=none;" vertex="1" parent="1">
          <mxGeometry x="425" y="620" width="185" height="60" as="geometry" />
        </mxCell>
        <mxCell id="ishwmYzlXYuHLydgc3fG-15" style="edgeStyle=orthogonalEdgeStyle;rounded=0;orthogonalLoop=1;jettySize=auto;html=1;exitX=0.5;exitY=1;exitDx=0;exitDy=0;entryX=0.5;entryY=0;entryDx=0;entryDy=0;" edge="1" parent="1" source="ishwmYzlXYuHLydgc3fG-11" target="ishwmYzlXYuHLydgc3fG-14">
          <mxGeometry relative="1" as="geometry" />
        </mxCell>
        <mxCell id="ishwmYzlXYuHLydgc3fG-11" value="$$\textrm{Compute}$$ $$I=I_{chirp}[i] \cdot cos(\varphi)$$ $$Q = Q_{chirp}[i] \cdot sin(\varphi)$$" style="rounded=0;whiteSpace=wrap;html=1;fillColor=none;" vertex="1" parent="1">
          <mxGeometry x="425" y="730" width="185" height="90" as="geometry" />
        </mxCell>
        <mxCell id="ishwmYzlXYuHLydgc3fG-28" style="edgeStyle=orthogonalEdgeStyle;rounded=0;orthogonalLoop=1;jettySize=auto;html=1;exitX=0.5;exitY=1;exitDx=0;exitDy=0;" edge="1" parent="1" source="ishwmYzlXYuHLydgc3fG-14" target="ishwmYzlXYuHLydgc3fG-26">
          <mxGeometry relative="1" as="geometry" />
        </mxCell>
        <mxCell id="ishwmYzlXYuHLydgc3fG-14" value="Pack IQ into complex 32-bit word" style="rounded=0;whiteSpace=wrap;html=1;fillColor=none;" vertex="1" parent="1">
          <mxGeometry x="425" y="870" width="185" height="70" as="geometry" />
        </mxCell>
        <mxCell id="ishwmYzlXYuHLydgc3fG-36" value="" style="edgeStyle=orthogonalEdgeStyle;rounded=0;orthogonalLoop=1;jettySize=auto;html=1;" edge="1" parent="1" source="ishwmYzlXYuHLydgc3fG-18" target="ishwmYzlXYuHLydgc3fG-5">
          <mxGeometry relative="1" as="geometry" />
        </mxCell>
        <mxCell id="ishwmYzlXYuHLydgc3fG-18" value="$$\textrm{Compute} \;\varphi$$" style="rounded=0;whiteSpace=wrap;html=1;fillColor=none;" vertex="1" parent="1">
          <mxGeometry x="425" y="510" width="185" height="60" as="geometry" />
        </mxCell>
        <mxCell id="ishwmYzlXYuHLydgc3fG-19" value="Error" style="rounded=0;whiteSpace=wrap;html=1;fillColor=none;" vertex="1" parent="1">
          <mxGeometry x="80" y="620" width="120" height="60" as="geometry" />
        </mxCell>
        <mxCell id="ishwmYzlXYuHLydgc3fG-22" value="$$I_{chirp} \neq Q_{chirp} \Vert I_{chirp} \neq Output[N]$$" style="text;html=1;align=center;verticalAlign=middle;resizable=0;points=[];autosize=1;strokeColor=none;fillColor=none;" vertex="1" parent="1">
          <mxGeometry x="145" y="620" width="330" height="30" as="geometry" />
        </mxCell>
        <mxCell id="ishwmYzlXYuHLydgc3fG-23" value="No" style="text;html=1;align=center;verticalAlign=middle;resizable=0;points=[];autosize=1;strokeColor=none;fillColor=none;" vertex="1" parent="1">
          <mxGeometry x="160" y="400" width="40" height="30" as="geometry" />
        </mxCell>
        <mxCell id="ishwmYzlXYuHLydgc3fG-26" value="" style="ellipse;whiteSpace=wrap;html=1;aspect=fixed;fillColor=none;fontFamily=Modern;fontSource=https%3A%2F%2Fsourceforge.net%2Fprojects%2Fcm-unicode%2F;" vertex="1" parent="1">
          <mxGeometry x="467.5" y="990" width="100" height="100" as="geometry" />
        </mxCell>
        <mxCell id="ishwmYzlXYuHLydgc3fG-27" value="&lt;div&gt;Output:&lt;/div&gt;&lt;div&gt;$$output[\ ]$$&lt;/div&gt;" style="ellipse;whiteSpace=wrap;html=1;aspect=fixed;fillColor=none;fontFamily=Modern;fontSource=https%3A%2F%2Fsourceforge.net%2Fprojects%2Fcm-unicode%2F;" vertex="1" parent="1">
          <mxGeometry x="477.5" y="1000" width="80" height="80" as="geometry" />
        </mxCell>
        <mxCell id="ishwmYzlXYuHLydgc3fG-38" value="Yes" style="text;html=1;align=center;verticalAlign=middle;resizable=0;points=[];autosize=1;strokeColor=none;fillColor=none;" vertex="1" parent="1">
          <mxGeometry x="375" y="400" width="40" height="30" as="geometry" />
        </mxCell>
        <mxCell id="ishwmYzlXYuHLydgc3fG-29" value="" style="whiteSpace=wrap;html=1;fillColor=none;dashed=1;dashPattern=12 12;" vertex="1" parent="1">
          <mxGeometry x="282.5" y="700" width="350" height="260" as="geometry" />
        </mxCell>
        <mxCell id="ishwmYzlXYuHLydgc3fG-30" value="$$\textrm{For length of } I_{chirp}$$" style="text;html=1;align=center;verticalAlign=middle;whiteSpace=wrap;rounded=0;" vertex="1" parent="1">
          <mxGeometry x="322.5" y="710" width="60" height="30" as="geometry" />
        </mxCell>
        <mxCell id="ishwmYzlXYuHLydgc3fG-33" value="&lt;div&gt;For each&lt;/div&gt;&lt;div&gt;N&lt;/div&gt;" style="text;html=1;align=center;verticalAlign=middle;whiteSpace=wrap;rounded=0;" vertex="1" parent="1">
          <mxGeometry x="262.5" y="500" width="60" height="30" as="geometry" />
        </mxCell>
      </root>
    </mxGraphModel>
  </diagram>
</mxfile>
